<svg version="1.1" xmlns="http://www.w3.org/2000/svg" viewBox="0 0 928 457" width="928" height="457">
  <!-- svg-source:excalidraw -->
  
  <defs>
    <style class="style-fonts">
      @font-face {
        font-family: "Virgil";
        src: url("https://excalidraw.com/Virgil.woff2");
      }
      @font-face {
        font-family: "Cascadia";
        src: url("https://excalidraw.com/Cascadia.woff2");
      }
    </style>
  </defs>
  <g stroke-linecap="round" transform="translate(10 231) rotate(0 64 61.5)"><path d="M30.75 0 M30.75 0 C56.52 -0.67, 79.77 -0.59, 97.25 0 M30.75 0 C46.96 0.68, 61.4 -0.64, 97.25 0 M97.25 0 C119.11 -0.59, 127.05 9.23, 128 30.75 M97.25 0 C117.09 1.36, 128.28 11, 128 30.75 M128 30.75 C129.4 50.49, 128.81 70.32, 128 92.25 M128 30.75 C127.58 52.83, 128.21 76.38, 128 92.25 M128 92.25 C128.15 111.21, 116.82 123.42, 97.25 123 M128 92.25 C126.68 113.96, 119.44 122.94, 97.25 123 M97.25 123 C83.26 123.08, 64.84 121.34, 30.75 123 M97.25 123 C78.65 123.67, 58.99 122.55, 30.75 123 M30.75 123 C10.5 124.69, 0.1 110.75, 0 92.25 M30.75 123 C10.13 122.05, 0.82 113.77, 0 92.25 M0 92.25 C-1.64 79.77, -0.43 67.95, 0 30.75 M0 92.25 C0.56 73.04, 0.47 52.37, 0 30.75 M0 30.75 C-1.23 8.87, 9.63 0.79, 30.75 0 M0 30.75 C-0.51 8.57, 8.36 -1.44, 30.75 0" stroke="#000000" stroke-width="1" fill="none"></path></g><g transform="translate(22.5 280) rotate(0 51.5 12.5)"><text x="51.5" y="18" font-family="Virgil, Segoe UI Emoji" font-size="20px" fill="#000000" text-anchor="middle" style="white-space: pre;" direction="ltr">CloudFlare</text></g><g stroke-linecap="round" transform="translate(450 43) rotate(0 234 202)"><path d="M32 0 M32 0 C178.92 -0.16, 327.82 -1.01, 436 0 M32 0 C181.72 1.21, 330.04 0.97, 436 0 M436 0 C455.86 -0.02, 467.41 9.33, 468 32 M436 0 C456.94 0.05, 469.18 10.34, 468 32 M468 32 C467.08 136.95, 469.11 240.21, 468 372 M468 32 C469.98 102.03, 469.66 171.35, 468 372 M468 372 C467 391.79, 457.33 402.15, 436 404 M468 372 C465.83 391.6, 459.11 402.19, 436 404 M436 404 C339.36 401.35, 244.38 402.22, 32 404 M436 404 C316.87 403.17, 197.4 403.09, 32 404 M32 404 C10.51 403.2, -1.85 394.36, 0 372 M32 404 C12.93 404.85, 1.25 392.77, 0 372 M0 372 C1.8 289.37, 0.79 206.29, 0 32 M0 372 C-0.89 244.73, -0.86 118.41, 0 32 M0 32 C-0.35 12.3, 12.17 0.98, 32 0 M0 32 C-1.95 8.78, 11.27 0.05, 32 0" stroke="#000000" stroke-width="1" fill="none"></path></g><g stroke-linecap="round" transform="translate(17 10) rotate(0 62.5 59.5)"><path d="M60.64 -0.26 C70.04 -1.48, 81.59 1.28, 90.39 5.36 C99.2 9.43, 107.93 16.59, 113.48 24.2 C119.03 31.82, 122.37 41.98, 123.7 51.05 C125.02 60.12, 124.51 69.97, 121.44 78.63 C118.36 87.3, 112.39 96.59, 105.25 103.05 C98.12 109.5, 87.82 115.05, 78.63 117.34 C69.44 119.64, 59.41 118.73, 50.11 116.82 C40.82 114.9, 30.54 111.65, 22.86 105.85 C15.18 100.04, 7.79 90.39, 4.02 81.97 C0.25 73.56, -0.7 64.41, 0.26 55.34 C1.21 46.27, 4.64 35.4, 9.73 27.55 C14.82 19.7, 21.34 12.86, 30.81 8.25 C40.29 3.65, 59.36 0.87, 66.58 -0.07 C73.8 -1.02, 74.04 1.74, 74.13 2.6 M56.9 -0.16 C66.15 -2, 76.58 1.08, 85.6 4.69 C94.62 8.3, 104.47 14.54, 111.03 21.5 C117.59 28.47, 122.97 37.55, 124.94 46.46 C126.92 55.37, 125.7 66.3, 122.88 74.97 C120.05 83.64, 114.79 91.58, 107.99 98.46 C101.2 105.33, 91.1 113.1, 82.11 116.22 C73.12 119.33, 63.33 118.35, 54.04 117.15 C44.76 115.94, 34.39 114.03, 26.4 108.99 C18.42 103.94, 10.51 95.34, 6.12 86.86 C1.73 78.39, -0.27 67.5, 0.07 58.14 C0.41 48.78, 3.33 38.75, 8.18 30.71 C13.02 22.66, 21.34 14.77, 29.13 9.89 C36.92 5.01, 50.19 3.08, 54.9 1.44 C59.62 -0.2, 57.01 -0.98, 57.41 0.03" stroke="#000000" stroke-width="1" fill="none"></path></g><g transform="translate(37.5 57) rotate(0 42 12.5)"><text x="42" y="18" font-family="Virgil, Segoe UI Emoji" font-size="20px" fill="#000000" text-anchor="middle" style="white-space: pre;" direction="ltr">Internet</text></g><g transform="translate(481 72) rotate(0 194.5 12.5)"><text x="0" y="18" font-family="Virgil, Segoe UI Emoji" font-size="20px" fill="#000000" text-anchor="start" style="white-space: pre;" direction="ltr">Home network (not publicly addressable)</text></g><g stroke-linecap="round" transform="translate(468 132) rotate(0 163.5 132)"><path d="M32 0 M32 0 C86.9 0.78, 140.55 -0.3, 295 0 M32 0 C94.37 0.32, 156.67 0.1, 295 0 M295 0 C318.29 -0.07, 327.41 10.93, 327 32 M295 0 C318.25 -0.16, 327.99 10.89, 327 32 M327 32 C328.13 109.53, 328.95 188.14, 327 232 M327 32 C328.27 72.86, 327.87 114.2, 327 232 M327 232 C326.82 252.07, 315.06 264.15, 295 264 M327 232 C325.17 253.12, 317.17 265.93, 295 264 M295 264 C205.46 266.3, 114.4 264.77, 32 264 M295 264 C197.25 262.27, 99.08 262.43, 32 264 M32 264 C10.46 265.23, -1.88 252, 0 232 M32 264 C10.21 263.99, -0.34 251.9, 0 232 M0 232 C0.75 172.45, 1.74 114.17, 0 32 M0 232 C1.17 190.08, 0.82 148.32, 0 32 M0 32 C-0.59 11.92, 9.43 -1.3, 32 0 M0 32 C-0.37 9.19, 8.5 -0.53, 32 0" stroke="#000000" stroke-width="1" fill="none"></path></g><g transform="translate(524 153) rotate(0 69.5 12.5)"><text x="0" y="18" font-family="Virgil, Segoe UI Emoji" font-size="20px" fill="#000000" text-anchor="start" style="white-space: pre;" direction="ltr">My server box</text></g><g stroke-linecap="round" transform="translate(521 281) rotate(0 70.5 25)"><path d="M12.5 0 M12.5 0 C43.07 0.48, 76.02 1.35, 128.5 0 M12.5 0 C49.89 0.17, 87.66 0.55, 128.5 0 M128.5 0 C137.97 -1.06, 141.69 5.71, 141 12.5 M128.5 0 C135.92 1.27, 140.19 4.46, 141 12.5 M141 12.5 C139.64 21.35, 139.29 31.66, 141 37.5 M141 12.5 C141.84 19.2, 140.72 23.12, 141 37.5 M141 37.5 C141.91 43.94, 138.44 49.88, 128.5 50 M141 37.5 C139.54 46.97, 138.98 48.03, 128.5 50 M128.5 50 C99.75 52.08, 75.1 48.73, 12.5 50 M128.5 50 C98.44 51.48, 67.69 51.4, 12.5 50 M12.5 50 C3.84 50.82, 0.65 46.02, 0 37.5 M12.5 50 C2.63 51.32, 1.35 48.03, 0 37.5 M0 37.5 C-0.17 33.93, -1.59 25.52, 0 12.5 M0 37.5 C-0.21 31.38, 0.31 22.99, 0 12.5 M0 12.5 C0.03 3.94, 5.46 1.92, 12.5 0 M0 12.5 C-1.15 2.12, 5.71 -0.77, 12.5 0" stroke="#000000" stroke-width="1" fill="none"></path></g><g transform="translate(537 293.5) rotate(0 54.5 12.5)"><text x="54.5" y="18" font-family="Virgil, Segoe UI Emoji" font-size="20px" fill="#000000" text-anchor="middle" style="white-space: pre;" direction="ltr">cloudflared</text></g><g stroke-linecap="round" transform="translate(532.5 205) rotate(0 70.5 25)"><path d="M12.5 0 M12.5 0 C36.82 0.21, 62.91 -0.48, 128.5 0 M12.5 0 C37.28 -0.09, 60.51 1.45, 128.5 0 M128.5 0 C136.53 -0.26, 142.58 3.97, 141 12.5 M128.5 0 C135.36 0, 140.3 1.93, 141 12.5 M141 12.5 C141.79 19.7, 140.6 27.68, 141 37.5 M141 12.5 C140.31 21.88, 140.76 29.9, 141 37.5 M141 37.5 C142.97 46.8, 137.49 50.04, 128.5 50 M141 37.5 C140.94 48.11, 135.23 49.11, 128.5 50 M128.5 50 C92.28 49.34, 57.94 52.65, 12.5 50 M128.5 50 C97.67 50, 66.58 49.92, 12.5 50 M12.5 50 C3.14 48.18, 0.89 43.94, 0 37.5 M12.5 50 C2.36 51.21, -0.35 47.3, 0 37.5 M0 37.5 C-1.37 32.8, 0.58 29.22, 0 12.5 M0 37.5 C-0.22 27.08, -0.56 19.11, 0 12.5 M0 12.5 C-0.92 4.69, 3.2 -1.52, 12.5 0 M0 12.5 C-1.26 3.43, 3.06 -1.86, 12.5 0" stroke="#000000" stroke-width="1" fill="none"></path></g><g transform="translate(547.5 217.5) rotate(0 55.5 12.5)"><text x="55.5" y="18" font-family="Virgil, Segoe UI Emoji" font-size="20px" fill="#000000" text-anchor="middle" style="white-space: pre;" direction="ltr">Static site</text></g><g mask="url(#mask-g1cFKJ9kJ14aRqji8meaS)" stroke-linecap="round"><g transform="translate(77.30070936473942 131.9836266442796) rotate(0 -0.8761615788228596 49.98683305929241)"><path d="M0.09 1.1 C-0.16 17.31, -1.17 81.88, -1.46 97.88 M-1.32 0.63 C-1.64 16.99, -1.73 83.12, -1.84 99.34" stroke="#000000" stroke-width="1" fill="none"></path></g><g transform="translate(77.30070936473942 131.9836266442796) rotate(0 -0.8761615788228596 49.98683305929241)"><path d="M-10.16 72.91 C-8.99 81.14, -7.17 88.57, -3.41 97.5 M-12.23 70.98 C-7.99 80.94, -4.16 90.38, -2.34 100.11" stroke="#000000" stroke-width="1" fill="none"></path></g><g transform="translate(77.30070936473942 131.9836266442796) rotate(0 -0.8761615788228596 49.98683305929241)"><path d="M10.37 72.99 C5.28 81.21, 0.83 88.61, -3.41 97.5 M8.29 71.06 C5.45 81.01, 2.21 90.43, -2.34 100.11" stroke="#000000" stroke-width="1" fill="none"></path></g></g><mask id="mask-g1cFKJ9kJ14aRqji8meaS"><rect x="0" y="0" fill="#fff" width="179.83932625601733" height="330"></rect><rect x="19.031400919100406" y="168.49181332213985" fill="#000" width="114" height="25" opacity="1"></rect></mask><g transform="translate(19.031400919100406 168.49181332213982) rotate(0 57.39314686681615 13.478646381432199)"><text x="57" y="18" font-family="Virgil, Segoe UI Emoji" font-size="20px" fill="#000000" text-anchor="middle" style="white-space: pre;" direction="ltr">HTTPS:443</text></g><g mask="url(#mask-l63OJwyJD7dbeTj8EJRFj)" stroke-linecap="round"><g transform="translate(139 295.26193726933025) rotate(0 190.93925138707732 4.155553171687615)"><path d="M-0.53 -0.14 C62.97 1.23, 316.4 6.7, 380.14 8.14 M1.4 -1.26 C65.35 0.3, 319.03 7.72, 382.41 9.57" stroke="#000000" stroke-width="1" fill="none"></path></g><g transform="translate(139 295.26193726933025) rotate(0 190.93925138707732 4.155553171687615)"><path d="M27.64 -11.22 C21.06 -6.17, 15.14 -7.44, -0.32 1.43 M27.25 -10.38 C18.7 -6.98, 9.79 -2.99, -0.6 0.72" stroke="#000000" stroke-width="1" fill="none"></path></g><g transform="translate(139 295.26193726933025) rotate(0 190.93925138707732 4.155553171687615)"><path d="M27.2 9.3 C20.73 9.67, 14.91 3.73, -0.32 1.43 M26.8 10.14 C18.55 6.73, 9.79 3.92, -0.6 0.72" stroke="#000000" stroke-width="1" fill="none"></path></g><g transform="translate(139 295.26193726933025) rotate(0 190.93925138707732 4.155553171687615)"><path d="M353.69 17.58 C360.09 18.52, 367.14 12.91, 382.61 11.14 M353.3 18.42 C363.75 15.24, 373.69 12.91, 382.33 10.43" stroke="#000000" stroke-width="1" fill="none"></path></g><g transform="translate(139 295.26193726933025) rotate(0 190.93925138707732 4.155553171687615)"><path d="M354.29 -2.93 C360.54 2.68, 367.45 1.75, 382.61 11.14 M353.89 -2.1 C364 1.53, 373.75 6, 382.33 10.43" stroke="#000000" stroke-width="1" fill="none"></path></g></g><mask id="mask-l63OJwyJD7dbeTj8EJRFj"><rect x="0" y="0" fill="#fff" width="620" height="403.6053771084528"></rect><rect x="227.5" y="286.9336571888915" fill="#000" width="204" height="25" opacity="1"></rect></mask><g transform="translate(227.5 286.9336571888915) rotate(0 102.43925138707732 12.483833252126345)"><text x="102" y="18" font-family="Virgil, Segoe UI Emoji" font-size="20px" fill="#000000" text-anchor="middle" style="white-space: pre;" direction="ltr">Tunnel - HTTPS:443</text></g><g stroke-linecap="round"><g transform="translate(597.5904000192197 280) rotate(0 0.7931756339290814 -10.099782337993389)"><path d="M0.84 0.81 C0.98 -2.57, 1.52 -17.23, 1.78 -21.01 M-0.18 0.19 C-0.3 -2.93, 0.38 -15.94, 0.72 -19.48" stroke="#000000" stroke-width="1" fill="none"></path></g><g transform="translate(597.5904000192197 280) rotate(0 0.7931756339290814 -10.099782337993389)"><path d="M4.34 -9.53 C2.57 -12.8, 0.69 -17.74, -0.03 -19.99 M3.32 -9.54 C2.78 -12.35, 1.8 -15.63, 0.95 -19.73" stroke="#000000" stroke-width="1" fill="none"></path></g><g transform="translate(597.5904000192197 280) rotate(0 0.7931756339290814 -10.099782337993389)"><path d="M-2.86 -10.04 C-1.9 -13.16, -1.05 -17.92, -0.03 -19.99 M-3.88 -10.05 C-2.32 -12.72, -1.2 -15.85, 0.95 -19.73" stroke="#000000" stroke-width="1" fill="none"></path></g></g><mask></mask></svg>